<?xml version="1.0" encoding="utf-8"?>
<!-- Generator: Adobe Illustrator 28.0.0, SVG Export Plug-In . SVG Version: 6.00 Build 0)  -->
<svg version="1.1" id="Layer_1" xmlns="http://www.w3.org/2000/svg" xmlns:xlink="http://www.w3.org/1999/xlink" x="0px" y="0px"
	 viewBox="0 0 1920 1080" style="enable-background:new 0 0 1920 1080;" xml:space="preserve">
<style type="text/css">
	.st0{fill:none;stroke:#000000;stroke-miterlimit:10;}
</style>
<g>
	<g>
		<path d="M1163.86,233.19h-457.9c-55.23,0-100,44.77-100,100v457.9c0,55.23,44.77,100,100,100h457.9c55.23,0,100-44.77,100-100
			v-457.9C1263.86,277.96,1219.09,233.19,1163.86,233.19z M1223.29,753.19c0,55.98-45.54,101.52-101.52,101.52H748.05
			c-55.98,0-101.52-45.54-101.52-101.52V379.48c0-55.98,45.54-101.52,101.52-101.52h373.71c55.98,0,101.52,45.54,101.52,101.52
			V753.19z"/>
	</g>
	<g>
		<path class="st0" d="M1163.86,233.19h-457.9c-55.23,0-100,44.77-100,100v457.9c0,55.23,44.77,100,100,100h457.9
			c55.23,0,100-44.77,100-100v-457.9C1263.86,277.96,1219.09,233.19,1163.86,233.19z M1223.29,753.19
			c0,55.98-45.54,101.52-101.52,101.52H748.05c-55.98,0-101.52-45.54-101.52-101.52V379.48c0-55.98,45.54-101.52,101.52-101.52
			h373.71c55.98,0,101.52,45.54,101.52,101.52V753.19z"/>
	</g>
</g>
<g>
	<g>
		<g>
			<ellipse transform="matrix(0.7071 -0.7071 0.7071 0.7071 -123.6675 825.7253)" cx="934.9" cy="562.14" rx="164.38" ry="164.38"/>
		</g>
		<g>
			
				<ellipse transform="matrix(0.7071 -0.7071 0.7071 0.7071 -123.6675 825.7253)" class="st0" cx="934.9" cy="562.14" rx="164.38" ry="164.38"/>
		</g>
	</g>
	<g>
		<g>
			<path d="M1121.76,317.95H748.05c-33.92,0-61.52,27.6-61.52,61.52v373.71c0,33.92,27.6,61.52,61.52,61.52h373.71
				c33.92,0,61.52-27.6,61.52-61.52V379.48C1183.29,345.55,1155.69,317.95,1121.76,317.95z M934.9,766.52
				c-112.7,0-204.38-91.68-204.38-204.38c0-112.7,91.69-204.38,204.38-204.38s204.38,91.69,204.38,204.38
				C1139.29,674.84,1047.6,766.52,934.9,766.52z M1119.66,402.96c-14.01,0-24.49-11.22-25.19-24.83
				c-0.69-13.42,11.75-25.19,24.83-25.19c14.01,0,24.49,11.22,25.19,24.83C1145.17,391.19,1132.73,402.96,1119.66,402.96z"/>
		</g>
		<g>
			<path class="st0" d="M1121.76,317.95H748.05c-33.92,0-61.52,27.6-61.52,61.52v373.71c0,33.92,27.6,61.52,61.52,61.52h373.71
				c33.92,0,61.52-27.6,61.52-61.52V379.48C1183.29,345.55,1155.69,317.95,1121.76,317.95z M934.9,766.52
				c-112.7,0-204.38-91.68-204.38-204.38c0-112.7,91.69-204.38,204.38-204.38s204.38,91.69,204.38,204.38
				C1139.29,674.84,1047.6,766.52,934.9,766.52z M1119.66,402.96c-14.01,0-24.49-11.22-25.19-24.83
				c-0.69-13.42,11.75-25.19,24.83-25.19c14.01,0,24.49,11.22,25.19,24.83C1145.17,391.19,1132.73,402.96,1119.66,402.96z"/>
		</g>
	</g>
</g>
</svg>
