<?xml version="1.0" encoding="utf-8"?>
<!-- Generator: Adobe Illustrator 28.0.0, SVG Export Plug-In . SVG Version: 6.00 Build 0)  -->
<svg version="1.1" id="Layer_1" xmlns="http://www.w3.org/2000/svg" xmlns:xlink="http://www.w3.org/1999/xlink" x="0px" y="0px"
	 viewBox="0 0 578.29 578.29" style="enable-background:new 0 0 578.29 578.29;" xml:space="preserve">
<style type="text/css">
	.st0{fill:none;stroke:#000000;stroke-width:50;stroke-miterlimit:10;}
</style>
<path class="st0" d="M471.43,536.67H102.67c-36.24,0-65.62-29.38-65.62-65.62V102.29c0-36.24,29.38-65.62,65.62-65.62h368.76
	c36.24,0,65.62,29.38,65.62,65.62v368.76C537.05,507.29,507.67,536.67,471.43,536.67z"/>
<g>
	<g>
		<path d="M183.05,151.14c0.1,21.18-15.56,38-40.9,38c-24.08,0-39.69-16.82-39.6-38c-0.1-21.75,15.87-38.1,40.27-38.1
			C167.41,113.04,182.75,129.32,183.05,151.14z M104.7,463.81V219.08h76.19v244.73H104.7z"/>
		<path d="M241.7,297.25c0-30.48-0.95-56.24-2-78.18h65.99l3.52,33.91h1.59c9.87-15.76,34.77-39.41,75.63-39.41
			c49.98,0,87.59,33.34,87.59,105.37v144.86h-76.19V328.17c0-31.53-11.26-53.11-38.7-53.11c-20.93,0-33.32,14.66-38.58,28.73
			c-1.95,4.76-2.66,12-2.66,18.81v141.21H241.7V297.25z"/>
	</g>
</g>
</svg>
