<?xml version="1.0" encoding="utf-8"?>
<!-- Generator: Adobe Illustrator 28.0.0, SVG Export Plug-In . SVG Version: 6.00 Build 0)  -->
<svg version="1.1" id="Layer_1" xmlns="http://www.w3.org/2000/svg" xmlns:xlink="http://www.w3.org/1999/xlink" x="0px" y="0px"
	 viewBox="0 0 1243.05 395.43" style="enable-background:new 0 0 1243.05 395.43;" xml:space="preserve">
<style type="text/css">
	.st0{fill:#6A8EFF;}
	.st1{fill:#FBB03B;}
	.st2{fill:#FB8465;}
	.st3{fill:#282828;}
</style>
<g>
	<path class="st0" d="M242.74,252.73h-64.5c-40.04,0-72.5-32.46-72.5-72.5v0c0-40.04,32.46-72.5,72.5-72.5h35.01
		c16.29,0,29.49,13.2,29.49,29.49V252.73z"/>
	<g>
		<path class="st1" d="M242.55,277.73h-29.3c-0.11,0-0.19-0.09-0.19-0.19V107.92c0-0.11,0.09-0.19,0.19-0.19h0
			c16.29,0,29.49,13.2,29.49,29.49v140.32C242.74,277.64,242.65,277.73,242.55,277.73z"/>
		<rect x="177.92" y="107.73" class="st2" width="29.68" height="170"/>
	</g>
</g>
<g>
	<g>
		<path class="st3" d="M338.93,163.05c-8.86-8.85-21.1-14.33-34.61-14.33h-8.9c-21.13,0-38.26,17.13-38.26,38.26v90.75h34.26v-64.68
			c0-1.08,1.38-1.25,1.85-0.53c9.77,9.77,19.55,19.55,29.33,29.33c17.91-6.69,30.67-23.95,30.67-44.19
			C353.27,184.15,347.79,171.91,338.93,163.05z M307.77,210.22c-0.15,0-0.3-0.01-0.45-0.02c-0.12,0.03-0.26,0.05-0.39,0.05h-11.68
			c-0.27,0-0.52-0.06-0.75-0.17c-1.01-0.23-1.42-1.27-1.22-2.15c-0.03-0.13-0.05-0.28-0.05-0.43v-16.57c0-0.29,0.06-0.54,0.16-0.75
			c0.48-2.48,2.35-4.63,5.61-4.63c0.28,0,0.54,0.03,0.8,0.06h7.42c0.22,0,0.42,0.04,0.6,0.11
			C323.4,185.97,323.44,210.22,307.77,210.22z"/>
	</g>
</g>
<path class="st3" d="M392.18,243.28h-31.64c-0.72,0-1.3-0.58-1.3-1.3v-89.74c0-1.95,1.58-3.52,3.52-3.52h27.2
	c1.95,0,3.52,1.58,3.52,3.52v89.74C393.48,242.7,392.9,243.28,392.18,243.28z"/>
<ellipse class="st3" cx="376.36" cy="125.33" rx="16.85" ry="16.51"/>
<path class="st3" d="M438.02,243.28h-31.41c-0.74,0-1.34-0.6-1.34-1.34V119.5c0-1.94,1.58-3.52,3.52-3.52h27.05
	c1.94,0,3.52,1.58,3.52,3.52v122.44C439.37,242.68,438.76,243.28,438.02,243.28z"/>
<g>
	<g>
		<path class="st3" d="M527.74,229.21c0.89-0.93,1.73-1.89,2.54-2.87l-26.76-21.18c-0.21,0.24-0.41,0.48-0.63,0.71
			c-5.34,5.4-14.47,5.45-19.87,0.11c-5.42-5.36-5.47-14.45-0.11-19.87c5.04-5.1,13.46-5.42,18.93-0.94l24.43-24.7
			c-19.03-17.58-48.95-16.56-67.31,2.49c-18.59,19.3-18.27,49.77,0.72,68.07C478.68,249.32,509.14,248.51,527.74,229.21z"/>
	</g>
</g>
<g>
	<g>
		<path class="st3" d="M585.03,184.8c-0.96-0.57-1.99-1.04-3.08-1.37c0.47,0.15,0.93,0.33,1.38,0.54c-1.71-0.77-3.58-1.2-5.54-1.2
			c-1.83,0-3.59,0.38-5.21,1.06v59.45h-33.97v-91.62c0-1.94,1.58-3.52,3.53-3.52h15.92c1.81,0,3.29,1.36,3.49,3.1
			c4.9-1.81,10.18-2.83,15.68-2.9c12.31-0.16,23.58,4.44,32.15,12.11L585.03,184.8z"/>
		<path class="st3" d="M585.03,184.8l-0.04,0.04v0.01c-0.24-0.15-0.48-0.29-0.73-0.43c-0.02-0.02-0.05-0.03-0.08-0.04
			c-0.28-0.14-0.56-0.28-0.85-0.41c-0.45-0.21-0.91-0.39-1.38-0.54C583.04,183.76,584.07,184.23,585.03,184.8z"/>
		<path class="st3" d="M585.03,184.8l-0.04,0.04c-0.24-0.15-0.48-0.29-0.73-0.42c-0.02-0.02-0.05-0.03-0.08-0.04
			c-0.28-0.16-0.56-0.29-0.85-0.41c-0.45-0.21-0.91-0.39-1.38-0.54C583.04,183.76,584.07,184.23,585.03,184.8z"/>
	</g>
</g>
<g>
	<path class="st3" d="M649.71,148.07c-26.37,0.35-47.46,22.35-47.1,49.14c0.35,26.79,22.01,48.23,48.38,47.88
		c26.37-0.35,47.46-22.35,47.1-49.14C697.74,169.16,676.08,147.72,649.71,148.07z M650.67,210.88c-7.62,0-14.05-6.43-14.05-14.05
		c0-7.59,6.46-14.05,14.05-14.05c7.62,0,14.05,6.43,14.05,14.05C664.72,204.42,658.26,210.88,650.67,210.88z"/>
	<path class="st3" d="M636.62,196.83c0-7.59,6.46-14.05,14.05-14.05c3.76,0,7.23,1.57,9.78,4.07c-2.55-2.65-6.13-4.3-10.1-4.3
		c-7.75,0-14.04,6.28-14.04,14.04c0,5.34,2.98,9.98,7.37,12.35C639.5,206.47,636.62,201.92,636.62,196.83z"/>
</g>
<path class="st3" d="M796.61,153.6v59.18c0,7.1-11,7.15-11,0.08v-32.28l-35.31,35.31c-0.52,0.77-1.23,1.36-2.04,1.74
	c-1.14,0.65-2.34,0.78-3.46,0.53c-2.44-0.32-4.64-2.05-4.64-5.22v-0.32c0-0.1,0-0.2,0-0.31v-58.57c0-0.05,0.01-0.1,0.01-0.15h-34.41
	v58.12c0,20.29,16.45,36.73,36.73,36.73h51.79c20.29,0,36.73-16.45,36.73-36.73V153.6H796.61z"/>
<g>
	<path class="st3" d="M910.12,238.14v10.42h-72.77v-10.42h26.95l3.05-3.05V129.98l-3.05-3.05h-24.97v-10.42h40.78v118.58l3.05,3.05
		H910.12z"/>
	<path class="st3" d="M1000.33,238.14v10.42h-23l-1.8-12.76l-0.72-0.36c-4.67,7.73-13.65,14.91-29.47,14.91
		c-20.12,0-30.36-11.32-30.36-25.51c0-12.94,8.27-22.46,32.34-27.13l27.31-5.21v-6.47c0-15.99-5.93-21.56-21.92-21.56
		c-8.09,0-14.55,1.44-20.48,4.13v10.96h-11.32v-19.4c8.27-3.95,20.84-6.83,32.16-6.83c21.74,0,34.32,8.26,34.32,31.62v50.13
		l3.05,3.05H1000.33z M974.64,202.75l-27.13,5.21c-13.83,2.69-19.04,8.8-19.04,16.71c0,7.73,5.57,14.55,18.51,14.55
		c11.68,0,21.74-5.57,27.67-15.09V202.75z"/>
	<path class="st3" d="M1111.24,165.56l-3.59,3.59l-12.4,79.41h-15.81l-15.27-43.66c-2.16-6.11-3.77-10.96-4.85-14.91h-0.72
		c-1.08,3.95-2.69,8.8-4.85,14.91l-14.91,43.66h-16.17l-12.4-79.41l-3.59-3.59v-10.42h28.57v10.42h-9.7l-2.87,3.41l6.47,42.4
		c1.62,10.78,2.16,17.97,2.7,25.15h0.72c1.44-5.93,3.77-13.3,6.29-20.48l12.58-35.75h15.27l12.58,35.75
		c2.52,7.19,4.85,14.55,6.29,20.48h0.72c0.54-7.19,1.08-14.37,2.7-25.15l6.29-42.4l-2.87-3.41h-9.7v-10.42h28.57V165.56z"/>
</g>
</svg>
