<?xml version="1.0" encoding="utf-8"?>
<!-- Generator: Adobe Illustrator 28.0.0, SVG Export Plug-In . SVG Version: 6.00 Build 0)  -->
<svg version="1.1" id="Layer_1" xmlns="http://www.w3.org/2000/svg" xmlns:xlink="http://www.w3.org/1999/xlink" x="0px" y="0px"
	 viewBox="0 0 409.14 254.48" style="enable-background:new 0 0 409.14 254.48;" xml:space="preserve">
<path d="M389.21,22.6c-11.29-11.29-25.25-11.55-27.88-11.55c-49.33-3.34-101.95-5.33-157.52-5.33c-55.72,0-108.47,1.99-157.9,5.33
	c-21.78,0-39.43,17.65-39.43,39.43v153.14c0,10.89,4.41,20.75,11.55,27.88c11.29,11.29,25.25,11.55,27.88,11.55
	c48.96,3.87,101.83,6.23,158.16,6.22c55.99-0.01,108.56-2.37,157.27-6.22c21.78,0,39.43-17.65,39.43-39.43V50.48
	C400.76,39.59,396.35,29.73,389.21,22.6z M288.54,129.61l-127.6,61.73c-1.4,0.68-3.02-0.34-3.02-1.89V65.99
	c0-1.55,1.62-2.57,3.02-1.89l127.6,61.73C290.12,126.6,290.12,128.85,288.54,129.61z"/>
</svg>
